<svg id="visual" viewBox="0 0 900 600" width="900" height="600" xmlns="http://www.w3.org/2000/svg" xmlns:xlink="http://www.w3.org/1999/xlink" version="1.1"><rect x="0" y="0" width="900" height="600" fill="#d3d3d3"></rect><g fill="none" stroke="#940909" stroke-width="4"><path d="M0 -98.2L22 -30.3L93.4 -30.3L35.7 11.6L57.7 79.4L0 37.5L-57.7 79.4L-35.7 11.6L-93.4 -30.3L-22 -30.3Z" transform="translate(461 585)"></path><path d="M0 -43.4L9.7 -13.4L41.3 -13.4L15.8 5.1L25.5 35.1L0 16.6L-25.5 35.1L-15.8 5.1L-41.3 -13.4L-9.7 -13.4Z" transform="translate(170 316)"></path><path d="M0 -73.6L16.5 -22.7L70 -22.7L26.7 8.7L43.3 59.6L0 28.1L-43.3 59.6L-26.7 8.7L-70 -22.7L-16.5 -22.7Z" transform="translate(358 223)"></path><path d="M0 -60.4L13.6 -18.7L57.4 -18.7L21.9 7.1L35.5 48.9L0 23.1L-35.5 48.9L-21.9 7.1L-57.4 -18.7L-13.6 -18.7Z" transform="translate(719 372)"></path><path d="M0 -77.4L17.4 -23.9L73.6 -23.9L28.1 9.1L45.5 62.6L0 29.6L-45.5 62.6L-28.1 9.1L-73.6 -23.9L-17.4 -23.9Z" transform="translate(867 102)"></path><path d="M0 -83.1L18.6 -25.7L79 -25.7L30.2 9.8L48.8 67.2L0 31.7L-48.8 67.2L-30.2 9.8L-79 -25.7L-18.6 -25.7Z" transform="translate(65 17)"></path><path d="M0 -63.2L14.2 -19.5L60.1 -19.5L23 7.5L37.2 51.2L0 24.2L-37.2 51.2L-23 7.5L-60.1 -19.5L-14.2 -19.5Z" transform="translate(895 596)"></path><path d="M0 -61.3L13.8 -19L58.3 -19L22.3 7.2L36.1 49.6L0 23.4L-36.1 49.6L-22.3 7.2L-58.3 -19L-13.8 -19Z" transform="translate(686 596)"></path><path d="M0 -57.6L12.9 -17.8L54.8 -17.8L20.9 6.8L33.8 46.6L0 22L-33.8 46.6L-20.9 6.8L-54.8 -17.8L-12.9 -17.8Z" transform="translate(7 516)"></path><path d="M0 -44.4L10 -13.7L42.2 -13.7L16.1 5.2L26.1 35.9L0 16.9L-26.1 35.9L-16.1 5.2L-42.2 -13.7L-10 -13.7Z" transform="translate(599 24)"></path><path d="M0 -94.4L21.2 -29.2L89.8 -29.2L34.3 11.1L55.5 76.4L0 36.1L-55.5 76.4L-34.3 11.1L-89.8 -29.2L-21.2 -29.2Z" transform="translate(510 374)"></path><path d="M0 -68L15.3 -21L64.6 -21L24.7 8L39.9 55L0 26L-39.9 55L-24.7 8L-64.6 -21L-15.3 -21Z" transform="translate(214 572)"></path><path d="M0 -43.4L9.7 -13.4L41.3 -13.4L15.8 5.1L25.5 35.1L0 16.6L-25.5 35.1L-15.8 5.1L-41.3 -13.4L-9.7 -13.4Z" transform="translate(375 2)"></path></g></svg>